:version 1.10
:name ASF
:units
  mass 1
  length 1
  angle deg
:documentation
  ASF file generated by Kaydara
:root
  axis xyz
  order  tx ty tz rx ry rz
  position 0 0 0
  orientation 0 0 0
:bonedata
  begin
    id 1
    name RightUpLegDummy
    direction -0.718183 -0.695806 0.00816078
    length 4.904
    axis 0 0 0 xyz
  end
  begin
    id 2
    name RightUpLeg
    direction 3.53989e-006 -0.995788 0.0916897
    length 17.4976
    axis -3.49089 -0.000906621 0.000287158 xyz
    dof rx ry rz
  end
  begin
    id 3
    name RightLeg
    direction 0.00371093 -0.995096 -0.0988418
    length 16.5821
    axis 3.68512 0.0193738 -0.131023 xyz
    dof rx ry rz
  end
  begin
    id 4
    name RightFoot
    direction 0.000791514 -0.46099 0.887405
    length 3.77069
    axis 4.84075e-005 -0.120479 -0.188788 xyz
    dof rx ry rz
  end
  begin
    id 5
    name RightToes
    direction 0.00124746 -0.014064 0.9999
    length 3.85082
    axis 0.00048216 0.542163 -0.142577 xyz
    dof rx ry rz
  end
  begin
    id 6
    name SpineDummy
    direction 8.3039e-015 1 4.57515e-016
    length 4.6813
    axis 0 0 0 xyz
  end
  begin
    id 7
    name Spine
    direction -4.63632e-008 0.999988 0.00495137
    length 10.1015
    axis -0.00138897 0.000121419 3.25764e-006 xyz
    dof rx ry rz
  end
  begin
    id 8
    name Spine1
    direction 0 0 0
    length 0
    axis -0.00138896 0.000121452 2.39764e-006 xyz
    dof rx ry rz
  end
  begin
    id 9
    name HEadDummy
    direction -3.91456e-008 0.999999 0.00127422
    length 3.43865
    axis -0.00138896 0.000121452 2.39764e-006 xyz
  end
  begin
    id 10
    name HEad
    direction -0.0222688 0.980941 0.193023
    length 5.12695
    axis -0.00138895 0.000121452 2.39764e-006 xyz
    dof rx ry rz
  end
  begin
    id 11
    name LeftShoulder1Dummy
    direction 0.998891 -0.0402508 -0.0244456
    length 3.5433
    axis -0.00138896 0.000121452 2.39764e-006 xyz
  end
  begin
    id 12
    name LeftShoulder1
    direction 0.99951 -0.000327743 0.0313091
    length 4.05031
    axis -0.00138896 0.000121452 2.39764e-006 xyz
    dof rx ry rz
  end
  begin
    id 13
    name LeftArm
    direction 0.998561 -0.00100054 -0.0536182
    length 10.3537
    axis -23.1894 0.134784 0.96751 xyz
    dof rx ry rz
  end
  begin
    id 14
    name LeftForeArm
    direction 0.998903 0.00866434 0.046012
    length 8.70632
    axis -9.91835 -0.06569 -0.177792 xyz
    dof rx ry rz
  end
  begin
    id 15
    name LeftHand
    direction 0.992938 -0.0411636 0.11126
    length 5.32135
    axis -0.00960227 -0.00340091 0.185174 xyz
    dof rx ry rz
  end
  begin
    id 16
    name RightShoulderDummy
    direction -0.998891 -0.0402509 -0.0244414
    length 3.5433
    axis -0.00138896 0.000121452 2.39764e-006 xyz
  end
  begin
    id 17
    name RightShoulder
    direction -0.99951 -0.000327827 0.0313133
    length 4.05031
    axis 0.215806 0.000203644 -0.00680151 xyz
    dof rx ry rz
  end
  begin
    id 18
    name RightArm
    direction -0.998573 -0.000999583 -0.053403
    length 10.3947
    axis -23.2009 -0.134239 -0.9641 xyz
    dof rx ry rz
  end
  begin
    id 19
    name RightForeArm
    direction -0.998898 0.00868026 0.0461306
    length 8.68355
    axis -9.92322 0.0658061 0.178869 xyz
    dof rx ry rz
  end
  begin
    id 20
    name RightHand
    direction -0.992843 -0.0414603 0.112003
    length 5.28593
    axis -0.00960634 0.00330671 -0.185226 xyz
    dof rx ry rz
  end
  begin
    id 21
    name LeftUpLegDummy
    direction 0.718183 -0.695806 0.00816078
    length 4.904
    axis 0 0 0 xyz
  end
  begin
    id 22
    name LeftUpLeg
    direction -6.8115e-006 -0.995793 0.0916336
    length 17.4976
    axis -3.48766 0.00143441 -0.000523914 xyz
    dof rx ry rz
  end
  begin
    id 23
    name LeftLeg
    direction -0.00601357 -0.995091 -0.0987824
    length 16.5821
    axis 3.68177 -0.00654038 -0.00028478 xyz
    dof rx ry rz
  end
  begin
    id 24
    name LeftFoot
    direction -0.00417578 -0.460984 0.887399
    length 3.77069
    axis 1.87232e-006 4.66002e-005 -8.1837e-006 xyz
    dof rx ry rz
  end
  begin
    id 25
    name LeftToes
    direction 0.00818058 -0.00485161 0.999955
    length 3.85048
    axis 1.06246e-005 4.65855e-005 -8.18502e-006 xyz
    dof rx ry rz
  end
:hierarchy
  begin
    root RightUpLegDummy SpineDummy LeftUpLegDummy
    RightUpLegDummy RightUpLeg
    RightUpLeg RightLeg
    RightLeg RightFoot
    RightFoot RightToes
    SpineDummy Spine
    Spine Spine1
    Spine1 HEadDummy LeftShoulder1Dummy RightShoulderDummy
    HEadDummy HEad
    LeftShoulder1Dummy LeftShoulder1
    LeftShoulder1 LeftArm
    LeftArm LeftForeArm
    LeftForeArm LeftHand
    RightShoulderDummy RightShoulder
    RightShoulder RightArm
    RightArm RightForeArm
    RightForeArm RightHand
    LeftUpLegDummy LeftUpLeg
    LeftUpLeg LeftLeg
    LeftLeg LeftFoot
    LeftFoot LeftToes
  end

:SAMPLES-PER-SECOND 30
:FRAME-RANGE 1-1390
:FULLY-SPECIFIED
:DEGREES
44
root  72.1797 38.8489 -74.8011 3.67676 -63.6694 -3.65558
RightUpLeg  -22.7773 2.97678 -3.32387
RightLeg  49.3815 -6.74835 -8.68874
RightFoot  -8.45901 -0.18059 4.88897
RightToes  6.35937e-011 1.2921e-014 -6.02303e-014
Spine  -4.07656 -2.09362 -1.32095
Spine1  7.9458 -2.30657 -1.75281
HEad  8.92559 -14.375 -1.28946
LeftShoulder1  1.77119 -2.64421 -23.7884
LeftArm  -5.35887 6.8404 -50.5303
LeftForeArm  40.4729 7.60634 -12.1694
LeftHand  -0.0253711 5.50559 2.22312
RightShoulder  1.47659 1.15004 27.1177
RightArm  -22.731 8.71502 51.821
RightForeArm  73.1274 -5.30594 4.26718
RightHand  0.26442 -8.16255 -12.1725
LeftUpLeg  -3.07178 -8.66842 -7.22111
LeftLeg  22.5665 4.65014 3.1094
LeftFoot  -17.1105 0.43335 6.54983
LeftToes  4.52251e-011 4.07896e-011 -5.42348e-012
45
root  71.5513 38.8668 -74.4453 4.30927 -62.3623 -4.32256
RightUpLeg  -23.5189 5.39628 -3.00456
RightLeg  42.5554 -6.55774 -6.68974
RightFoot  -8.18244 -0.22711 6.21107
RightToes  6.35937e-011 1.2921e-014 -6.02303e-014
Spine  -4.14566 -2.27834 -1.1151
Spine1  7.66706 -2.43436 -1.45751
HEad  8.84189 -15.4692 -1.33185
LeftShoulder1  1.81024 -2.77675 -23.782
LeftArm  -4.52988 5.09777 -50.6209
LeftForeArm  40.4806 7.6077 -12.1792
LeftHand  -0.0291467 5.24035 2.46652
RightShoulder  1.46737 1.09167 27.3545
RightArm  -23.7335 6.98298 51.4122
RightForeArm  73.8145 -5.20967 3.85423
RightHand  0.265794 -8.21648 -12.0139
LeftUpLeg  -1.46996 -8.52652 -6.9037
LeftLeg  21.6806 3.32028 2.66435
LeftFoot  -17.6299 0.474786 6.70385
LeftToes  4.52251e-011 4.07896e-011 -5.42348e-012
46
root  70.9417 38.8994 -74.0846 5.38504 -60.6883 -5.25613
RightUpLeg  -24.0179 6.90216 -2.61165
RightLeg  34.5834 -5.15348 -4.05414
RightFoot  -7.0155 -0.277864 6.08648
RightToes  6.35937e-011 1.2921e-014 -6.02303e-014
Spine  -4.1955 -2.62236 -0.678348
Spine1  7.27337 -2.73194 -1.13863
HEad  8.77132 -16.4839 -1.2122
LeftShoulder1  1.83422 -2.89796 -23.5771
LeftArm  -3.71461 3.37656 -50.8627
LeftForeArm  40.638 6.38035 -12.3242
LeftHand  -0.0308188 5.14136 2.53301
RightShoulder  1.38154 0.798766 27.6416
RightArm  -24.3547 5.03051 50.9443
RightForeArm  73.9653 -5.1732 3.67165
RightHand  0.283088 -8.40354 -11.9582
LeftUpLeg  -0.0860908 -8.35241 -6.24961
LeftLeg  20.6846 1.80895 2.16539
LeftFoot  -17.7938 0.550822 7.85834
LeftToes  4.52251e-011 4.07896e-011 -5.42348e-012
47
root  70.3297 38.952 -73.6961 6.24072 -59.1755 -5.77519
RightUpLeg  -24.1308 8.03238 -2.37036
RightLeg  25.7037 -3.55258 -2.07936
RightFoot  -5.66796 -0.393005 7.14229
RightToes  6.35937e-011 1.2921e-014 -6.02303e-014
Spine  -4.93242 -2.89863 -0.415089
Spine1  7.79039 -3.016 -0.658169
HEad  8.62066 -17.3174 -1.28667
LeftShoulder1  1.87524 -3.06514 -23.4387
LeftArm  -3.03006 1.42841 -51.1641
LeftForeArm  40.5314 4.95107 -12.4631
LeftHand  -0.033951 4.98302 2.7269
RightShoulder  1.29377 0.527879 27.7188
RightArm  -25.2533 3.15053 50.6859
RightForeArm  74.2886 -5.10022 3.31245
RightHand  0.278825 -8.39677 -11.8286
LeftUpLeg  1.21323 -7.92612 -5.71413
LeftLeg  19.4632 0.0101831 1.67154
LeftFoot  -17.8657 0.564244 7.99845
LeftToes  4.52251e-011 4.07896e-011 -5.42348e-012
48
root  69.6948 38.9636 -73.2847 6.59535 -57.9322 -5.67563
RightUpLeg  -24.0807 6.8334 -1.85119
RightLeg  16.959 -0.941203 -0.52644
RightFoot  -4.31361 -0.49291 7.53679
RightToes  6.35937e-011 1.2921e-014 -6.02303e-014
Spine  -5.3675 -3.15514 -0.37054
Spine1  7.87592 -3.2318 -0.432442
HEad  8.79131 -17.9152 -1.27825
LeftShoulder1  1.8883 -3.17762 -23.1127
LeftArm  -2.69818 -0.0400722 -51.5567
LeftForeArm  40.6864 3.57609 -12.4706
LeftHand  -0.0386108 4.72882 2.72223
RightShoulder  1.22847 0.297831 28.0599
RightArm  -25.8646 1.10378 50.113
RightForeArm  74.4712 -5.06202 3.12824
RightHand  0.288994 -8.50612 -11.8053
LeftUpLeg  2.43885 -7.20884 -5.46971
LeftLeg  18.4177 -1.73564 1.26339
LeftFoot  -17.8869 0.582672 8.29046
LeftToes  4.52251e-011 4.07896e-011 -5.42348e-012
49
root  69.0093 38.9762 -72.8357 6.94995 -56.7021 -5.66745
RightUpLeg  -23.6648 3.92681 -0.158024
RightLeg  9.32313 2.47372 -0.402672
RightFoot  -3.47513 -0.675152 9.45385
RightToes  6.35937e-011 1.2921e-014 -6.02303e-014
Spine  -5.85832 -3.38386 -0.280464
Spine1  8.12568 -3.51832 -0.0334447
HEad  9.04594 -18.4253 -1.47618
LeftShoulder1  1.88268 -3.17157 -23.0496
LeftArm  -2.05206 -1.42718 -51.7784
LeftForeArm  40.3945 2.34044 -12.6044
LeftHand  -0.0384168 4.78063 2.89978
RightShoulder  1.17041 0.116417 28.1623
RightArm  -26.5088 -1.17693 49.6273
RightForeArm  74.953 -5.00796 2.92293
RightHand  0.317182 -8.73291 -11.9933
LeftUpLeg  3.88126 -6.2982 -5.08363
LeftLeg  17.2462 -3.63763 0.89895
LeftFoot  -17.7323 0.583158 8.51581
LeftToes  4.52251e-011 4.07896e-011 -5.42348e-012
